<?xml version="1.0" encoding="UTF-8"?>
<svg id="Warstwa_1" xmlns="http://www.w3.org/2000/svg" version="1.1" viewBox="0 0 2000 1996.95">
  <!-- Generator: Adobe Illustrator 30.2.1, SVG Export Plug-In . SVG Version: 2.1.1 Build 1)  -->
  <path d="M568.23,1442.47c-111.71,79.07-246.9,197.83-168.4,348.89-147.13-75.76-196.49-248.1-125.32-394.89,61.31-126.46,224.54-267.71,342.66-341.82l451.92-283.57c107.53-67.47,210.11-132.21,307.9-212.43,122.09-100.15,250.72-257.91,113.92-411.25,104.79,34.44,189.46,106.98,248.3,195.84,82.06,123.93,76.14,276.54-9.3,396.76-49.31,69.38-109.54,124.67-179.42,175.23-102.66,74.28-209.63,135.29-324.97,189.34l-352.45,165.18c-107.41,50.34-208.28,104.35-304.85,172.7v.02Z"/>
  <path d="M107.46,1483.1c-148.34-218.21-17.66-441.66,140.01-609.3,92.1-97.93,190.94-182.8,298.19-263.82l172.35-130.21c96.12-72.62,189.19-143.91,276.23-226.91,40.8-38.9,119.78-122.81,87.2-175.22-32.03-51.53-188.62-30.12-243.13-17.17C533.32,132.93,278.27,341.31,146.69,625.45c-30.63,66.15-54.03,130.08-72.21,200.52L5.9,1091.62C-37.76,699.99,164.24,326.37,502.93,132.98,715.67,11.52,966.51-30.18,1206.85,22.17c52.61,11.46,101.51,29.56,143.13,59.52,71.63,51.56,93.93,137.9,57.84,218.16-30.37,67.53-77.68,122.99-134.52,172.42-89.24,77.59-183.09,143.56-283.66,206.86l-328.28,206.61c-109.96,69.21-211.31,143.75-307.71,230.29-128.83,115.66-239.21,284.24-164.63,462.35-37.34-26.51-57.67-60.17-81.55-95.28h0Z"/>
  <path d="M495.53,1582.27c8.16,96.48,127.55,166.89,207.35,197.62,193.88,74.65,406.81,73.11,603.92,5.02,349.82-120.84,588.65-443.5,614.7-812.28,7.93-112.22-2.33-218.31-26.03-328.2-7.52-34.85-16.3-69.48-15.61-104.25,136.12,242.62,155.4,527.88,63.78,787.39-138.34,391.9-512.22,659.4-927.6,669.11-144.9,3.39-282.22-24.41-411.27-86.01-57.64-27.51-107.05-63.61-145.01-114.12-52.98-70.5-34.97-166.8,35.76-214.27h0Z"/>
</svg>