<?xml version="1.0" encoding="UTF-8"?>
<svg id="Warstwa_1" data-name="Warstwa 1" xmlns="http://www.w3.org/2000/svg" xmlns:xlink="http://www.w3.org/1999/xlink" viewBox="0 0 160 160.8">
  <defs>
    <style>
      .cls-1 {
        fill: url(#Gradient_bez_nazwy_69);
      }
    </style>
    <linearGradient id="Gradient_bez_nazwy_69" data-name="Gradient bez nazwy 69" x1="39.08" y1="26.37" x2="106.81" y2="136.24" gradientUnits="userSpaceOnUse">
      <stop offset="0" stop-color="#fff"/>
      <stop offset=".1" stop-color="#f9f9f9"/>
      <stop offset=".22" stop-color="#e8e8e8"/>
      <stop offset=".36" stop-color="#cdcdcd"/>
      <stop offset=".51" stop-color="#a7a7a7"/>
      <stop offset=".68" stop-color="#777"/>
      <stop offset=".84" stop-color="#3c3c3c"/>
      <stop offset="1" stop-color="#000"/>
    </linearGradient>
  </defs>
  <rect width="160" height="160.8" rx="30" ry="30"/>
  <path class="cls-1" d="M76.23,107.07v-21.5c5.94,0,11.32-2.4,15.18-6.32,3.91-3.87,6.32-9.25,6.32-15.18,0-11.91-9.64-21.5-21.5-21.5-5.84-.17-10.57-4.9-10.75-10.75-.08,2.92-1.33,5.55-3.23,7.53-1.97,1.89-4.6,3.14-7.52,3.22,2.92.09,5.55,1.33,7.52,3.23,1.89,1.98,3.15,4.6,3.23,7.53v85.62h-21.5V21.07h32.24c3.68,0,7.46.47,11.22,1.45,16.36,4.25,28.84,18.31,31.3,35.04,3.91,26.62-16.64,49.51-42.52,49.51Z"/>
</svg>