<?xml version="1.0" encoding="UTF-8"?>
<svg id="Warstwa_1" xmlns="http://www.w3.org/2000/svg" version="1.1" viewBox="0 0 5116.04 1996.95">
  <!-- Generator: Adobe Illustrator 30.2.1, SVG Export Plug-In . SVG Version: 2.1.1 Build 1)  -->
  <path d="M894.97,116.53c376.65,0,615.37,265.25,615.37,594.15s-238.72,594.15-615.37,594.15h-424.39c-26.52,0-47.74,21.22-47.74,47.74v514.58c0,26.52-21.22,47.74-47.74,47.74h-193.63c-26.52,0-47.74-21.22-47.74-47.74V164.27c0-26.52,21.22-47.74,47.74-47.74h713.51ZM894.97,405.64h-424.39c-26.52,0-47.74,21.22-47.74,47.74v514.58c0,26.52,21.22,47.74,47.74,47.74h424.39c217.5,0,326.25-135.28,326.25-305.03s-108.75-305.03-326.25-305.03Z"/>
  <path d="M3016.89,1246.47c0,379.3-307.69,686.99-686.99,686.99s-686.99-307.69-686.99-686.99,307.69-686.99,686.99-686.99,686.99,307.69,686.99,686.99ZM2727.78,1246.47c0-220.15-177.71-397.87-397.87-397.87s-397.87,177.71-397.87,397.87,177.71,397.87,397.87,397.87,397.87-177.71,397.87-397.87Z"/>
  <path d="M4982.33,832.7c0,15.91-7.96,31.83-23.87,42.44l-159.15,98.14c-7.96,5.3-18.57,7.96-29.18,7.96-15.91,0-29.18-7.96-39.79-18.57-61.01-76.92-153.84-114.06-254.64-114.06-180.37,0-328.91,116.71-328.91,344.82v673.72c0,26.52-21.22,47.74-47.74,47.74h-517.2c-238.72,0-432.35-164.45-432.35-450.92V113.89c0-26.52,21.22-50.4,47.74-50.4h193.63c26.52,0,47.74,23.87,47.74,50.4v1350.1c0,127.32,63.66,161.8,143.23,161.8h278.48v-432.35c0-387.26,275.86-633.94,615.37-633.94,204.24,0,384.61,90.18,498.66,246.68,5.3,7.96,7.96,15.91,7.96,26.52Z"/>
</svg>